<svg xmlns="http://www.w3.org/2000/svg" xmlns:xlink="http://www.w3.org/1999/xlink" viewBox="0 0 298 271.43"><defs><style>.cls-1,.cls-19,.cls-5,.cls-6,.cls-7,.cls-9{fill:none;}.cls-2{fill:#cf382f;}.cls-3{fill:#8d2118;}.cls-4{fill:#ef4136;}.cls-5{stroke:#d1d3d4;stroke-width:17.01px;}.cls-27,.cls-5,.cls-7{stroke-miterlimit:10;}.cls-6{stroke:#414042;}.cls-19,.cls-27,.cls-6,.cls-7,.cls-9{stroke-linecap:round;stroke-width:0.85px;}.cls-19,.cls-6,.cls-9{stroke-linejoin:round;}.cls-27,.cls-7{stroke:#bcbec0;}.cls-8{fill:#414042;}.cls-9{stroke:#6d6e71;}.cls-10{fill:#d1d3d4;}.cls-11{fill:#e4b69d;}.cls-12{fill:#1b75bc;}.cls-13{fill:url(#Degradado_sin_nombre_15);}.cls-14{fill:url(#Degradado_sin_nombre_43);}.cls-15{fill:#939598;}.cls-16{fill:#1969a9;}.cls-17{fill:#e13d33;}.cls-18{clip-path:url(#clip-path);}.cls-19{stroke:#f1f2f2;}.cls-20{fill:url(#Degradado_sin_nombre_50);}.cls-21{clip-path:url(#clip-path-2);}.cls-22{fill:#bcbec0;}.cls-23{fill:url(#Degradado_sin_nombre_21);}.cls-24{fill:url(#Degradado_sin_nombre_21-2);}.cls-25{fill:#39b54a;}.cls-26{fill:#00aeef;}.cls-27{fill:#d0d2d3;}.cls-28{fill:#008dce;}.cls-29{fill:#009444;}</style><linearGradient id="Degradado_sin_nombre_15" x1="162.52" y1="21.26" x2="162.52" y2="102.97" gradientUnits="userSpaceOnUse"><stop offset="0.41" stop-color="#d1d3d4"/><stop offset="1" stop-color="#c2c4c5"/></linearGradient><linearGradient id="Degradado_sin_nombre_43" x1="129.8" y1="102.13" x2="195.23" y2="102.13" gradientUnits="userSpaceOnUse"><stop offset="0" stop-color="#414042"/><stop offset="0.51" stop-color="#58595b"/><stop offset="0.99" stop-color="#424142"/></linearGradient><clipPath id="clip-path"><polygon class="cls-1" points="160.86 21.04 167.72 21.26 171.93 27.24 167.72 32.99 161.52 33.66 156.43 25.69 160.86 21.04"/></clipPath><linearGradient id="Degradado_sin_nombre_50" x1="162.85" y1="94.83" x2="162.85" y2="32.99" gradientUnits="userSpaceOnUse"><stop offset="0" stop-color="#ef4136"/><stop offset="0.99" stop-color="#c5352c"/></linearGradient><clipPath id="clip-path-2"><path class="cls-1" d="M161.52,33.62c-1.33,1-5.76,53.92-5.76,53.92l7.31,7.29,6.86-7.08L167.72,33Z"/></clipPath><linearGradient id="Degradado_sin_nombre_21" x1="182.56" y1="257.48" x2="182.56" y2="113.59" gradientUnits="userSpaceOnUse"><stop offset="0" stop-color="#1765a2"/><stop offset="0.99" stop-color="#1b75bc"/></linearGradient><linearGradient id="Degradado_sin_nombre_21-2" x1="143.2" y1="257.48" x2="143.2" y2="113.59" xlink:href="#Degradado_sin_nombre_21"/></defs><title>Asset 5</title><g id="Layer_2" data-name="Layer 2"><g id="OBJECTS"><rect class="cls-2" x="117.67" y="13.41" width="91" height="21.25"/><path class="cls-3" d="M100,20C76.48,39.1,60,68,58.67,80.66c-1.07,10.1-4,120-58.67,87.34,43.33,77.33,154.67,3.33,160,42s107.33,20,138-50.67c-30.67,20.67-102,6-62.67-26.67s27.59-93-16.66-114c-22.67,2-48.67,17.34-62,12S110.67,11.33,100,20Z"/><path class="cls-4" d="M214.79,114.62,205,120.33a1.88,1.88,0,0,0,.25,3.4c.51.17.84,0,1.31-.44,1.73-1.55,3.78,1.16,2.14,2.66-1.9,1.74-13.52,6.34-18.33-5.23S210.9,106,210.9,106Z"/><path class="cls-5" d="M187.31,31.06c35.72,14.71,91,41.85,23,80.91"/><path class="cls-6" d="M200,121s-.44,6.3,4.62,6.65"/><path class="cls-6" d="M196,120.81s-1.42,6.16,3.53,7.29"/><path class="cls-6" d="M193.76,117.62s-4,4.88-.08,8.1"/><line class="cls-7" x1="221.56" y1="115.53" x2="212.27" y2="100.47"/><path class="cls-4" d="M109,114.62l9.83,5.71a1.88,1.88,0,0,1-.25,3.4c-.51.17-.84,0-1.32-.44-1.73-1.55-3.78,1.16-2.13,2.66,1.9,1.74,13.52,6.34,18.32-5.23S112.93,106,112.93,106Z"/><path class="cls-5" d="M136.53,31.06c-35.73,14.71-91,41.85-23,80.91"/><path class="cls-6" d="M123.87,121s.44,6.3-4.63,6.65"/><path class="cls-6" d="M127.89,120.81s1.41,6.16-3.54,7.29"/><path class="cls-6" d="M130.07,117.62s4,4.88.08,8.1"/><line class="cls-7" x1="102.28" y1="115.53" x2="111.57" y2="100.47"/><path class="cls-8" d="M177.24,255.66l-1.94,15.61,8.67.16v-2l5.19,1.31a22,22,0,0,0,5.48.68H205v-4L200.3,266a22.34,22.34,0,0,1-11.14-7.65L187,255.66Z"/><path class="cls-9" d="M176.13,266.74c4.07,0,7.68,0,10.1,1.08s18.34,2,18.34,2"/><path class="cls-10" d="M189.16,258.37,187,255.66h-9.8l-.56,4.49,9.59,2.15s1.25-3,3-3.78C189.24,258.47,189.2,258.43,189.16,258.37Z"/><rect class="cls-11" x="151.56" width="23.91" height="24.58"/><path class="cls-12" d="M194.74,103a23.59,23.59,0,0,1-23.59,23.58H153.88A23.58,23.58,0,0,1,130.3,103Z"/><path class="cls-13" d="M130.3,103V29.73a8.47,8.47,0,0,1,8.47-8.47h47.5a8.47,8.47,0,0,1,8.47,8.47V103Z"/><path class="cls-7" d="M164.26,102.13c-.09-1.48,0-75.17,0-75.17"/><rect class="cls-14" x="129.8" y="99.81" width="65.43" height="4.65"/><rect class="cls-15" x="155.38" y="98.98" width="15.28" height="6.98"/><rect class="cls-16" x="145.91" y="99.31" width="1.99" height="6.14"/><rect class="cls-16" x="135.78" y="99.31" width="1.99" height="6.14"/><rect class="cls-16" x="187.43" y="99.31" width="1.99" height="6.14"/><rect class="cls-16" x="177.3" y="99.31" width="1.99" height="6.14"/><polygon class="cls-17" points="160.86 21.04 167.72 21.26 171.93 27.24 167.72 32.99 161.52 33.66 156.43 25.69 160.86 21.04"/><g class="cls-18"><line class="cls-19" x1="156.87" y1="28.4" x2="167.42" y2="20.34"/><line class="cls-19" x1="160.19" y1="31.72" x2="170.74" y2="23.67"/></g><path class="cls-20" d="M161.52,33.62c-1.33,1-5.76,53.92-5.76,53.92l7.31,7.29,6.86-7.08L167.72,33Z"/><g class="cls-21"><line class="cls-19" x1="159.2" y1="41.77" x2="169.74" y2="33.71"/><line class="cls-19" x1="158.86" y1="49.16" x2="169.41" y2="41.1"/><line class="cls-19" x1="158.53" y1="56.55" x2="169.08" y2="48.49"/><line class="cls-19" x1="157.3" y1="66.43" x2="169.15" y2="57.38"/><line class="cls-19" x1="155.96" y1="78.16" x2="170.49" y2="67.07"/><line class="cls-19" x1="155.96" y1="90.29" x2="170.49" y2="79.19"/></g><path class="cls-4" d="M149.42,25.91c-1.5,0-13.5,4-23.5-1s-34,0-45.5,15c13-23.5,34-34,45-27s17.75,8.75,21.5,6.5C149.42,19.91,149.42,25.91,149.42,25.91Z"/><path class="cls-4" d="M175.92,25.91c1.5,0,13.5,4,23.5-1s34,0,45.5,15c-13-23.5-34-34-45-27s-17.75,8.75-21.5,6.5C175.92,19.91,175.92,25.91,175.92,25.91Z"/><polygon class="cls-22" points="145.33 21.26 151.47 17.02 161.27 21.04 153.63 31.55 145.33 21.26"/><polygon class="cls-22" points="167.72 21.26 175.47 16.69 182.11 21.26 173.4 30.81 167.72 21.26"/><rect class="cls-15" x="156.7" y="53.48" width="6.64" height="2.41"/><polygon class="cls-23" points="193.19 257.48 171.93 257.48 174.59 113.59 190.53 113.59 193.19 257.48"/><path class="cls-8" d="M148.51,255.66l1.94,15.61-8.66.16v-2l-5.19,1.31a22.14,22.14,0,0,1-5.49.68H120.78v-4l4.68-1.43a22.31,22.31,0,0,0,11.13-7.65l2.12-2.71Z"/><path class="cls-9" d="M149.62,266.74c-4.06,0-7.68,0-10.1,1.08s-18.34,2-18.34,2"/><path class="cls-10" d="M136.59,258.37l2.12-2.71h9.8l.56,4.49-9.58,2.15s-1.25-3-3-3.78C136.51,258.47,136.55,258.43,136.59,258.37Z"/><polygon class="cls-24" points="132.57 257.48 153.83 257.48 151.17 113.59 135.23 113.59 132.57 257.48"/><path class="cls-25" d="M177.35,49.07h0a1.28,1.28,0,0,1-1.28-1.27V37.43a1.29,1.29,0,0,1,1.28-1.28h0a1.28,1.28,0,0,1,1.27,1.28V47.8A1.27,1.27,0,0,1,177.35,49.07Z"/><path class="cls-26" d="M181.5,46.52h0a1.28,1.28,0,0,1-1.28-1.27V34.88a1.28,1.28,0,0,1,1.28-1.27h0a1.27,1.27,0,0,1,1.27,1.27V45.25A1.27,1.27,0,0,1,181.5,46.52Z"/><path class="cls-27" d="M173.89,42.88h12.92s1.64,12.92-7.28,12.92S173.89,42.88,173.89,42.88Z"/><path class="cls-28" d="M182.52,45h0a.72.72,0,0,1-.71-.72v-7a.71.71,0,0,1,.71-.71h0a.71.71,0,0,1,.72.71v7A.72.72,0,0,1,182.52,45Z"/><path class="cls-29" d="M178,46.14h0a.72.72,0,0,1-.72-.72v-7a.71.71,0,0,1,.72-.71h0a.71.71,0,0,1,.71.71v7A.72.72,0,0,1,178,46.14Z"/><path class="cls-4" d="M118.87,120.33l-28.54,1c.34-20,18.67-35,25-35.33,6.67,17.66,9,22.66,9,22.66Z"/><polyline class="cls-4" points="200.33 108.66 215.33 88.33 230.67 119.66 206 119.33"/><line class="cls-6" x1="212.33" y1="92" x2="225.67" y2="119.66"/><path class="cls-6" d="M94,121c3-13,10.33-24,22.33-29.67"/></g></g></svg>