<svg xmlns="http://www.w3.org/2000/svg" xmlns:xlink="http://www.w3.org/1999/xlink" viewBox="0 0 143.49 145.3"><defs><style>.cls-1,.cls-10,.cls-5,.cls-7{fill:none;}.cls-2{fill:#e4b69d;}.cls-3{fill:#62401f;}.cls-4{fill:#efc7b0;}.cls-5{stroke:#ae664f;}.cls-10,.cls-5,.cls-7{stroke-linecap:round;stroke-linejoin:round;stroke-width:0.85px;}.cls-6{fill:url(#Degradado_sin_nombre_38);}.cls-7{stroke:#62401f;}.cls-8{fill:#ef4136;}.cls-9{clip-path:url(#clip-path);}.cls-10{stroke:#414042;}.cls-11{fill:#fff;}.cls-12{clip-path:url(#clip-path-2);}.cls-13{fill:#414042;}.cls-14{clip-path:url(#clip-path-3);}.cls-15{fill:#754c29;}</style><linearGradient id="Degradado_sin_nombre_38" x1="13.07" y1="52.08" x2="155.99" y2="52.08" gradientTransform="translate(-24.48 13.33) rotate(-10.75)" gradientUnits="userSpaceOnUse"><stop offset="0" stop-color="#754c29"/><stop offset="0.54" stop-color="#9b5a2c"/><stop offset="0.99" stop-color="#754d29"/></linearGradient><clipPath id="clip-path"><path class="cls-1" d="M6.89,92.2s21-2,29.5,5.5,28,17.5,42.5-3.5c3.5-6,10.37-5.55,16,0,12.34,12.17,37,1.5,35-19.5-1.5-13-2.5-16-2.5-16s-18.5-15-37,.5-25.5-3-43,4S6.89,88.7,6.89,88.7Z"/></clipPath><clipPath id="clip-path-2"><circle class="cls-1" cx="56.09" cy="84.86" r="17.94" transform="translate(-7.28 5.29) rotate(-5.07)"/></clipPath><clipPath id="clip-path-3"><circle class="cls-1" cx="106.56" cy="75.28" r="17.94" transform="translate(-7.94 137.82) rotate(-63.88)"/></clipPath></defs><title>Asset 4</title><g id="Layer_2" data-name="Layer 2"><g id="OBJECTS"><ellipse class="cls-2" cx="131.64" cy="81.4" rx="11.79" ry="13.29" transform="translate(-12.87 25.98) rotate(-10.75)"/><path class="cls-3" d="M109.44,24.09s20.93,10.56,18.15,22.58,4,34.73,4,34.73l-9.1,1L85.33,30.69Z"/><path class="cls-4" d="M84.59,144.31h0a55.34,55.34,0,0,1-64.71-44.06L17.07,85.46A55.36,55.36,0,0,1,61.13,20.75h0a55.35,55.35,0,0,1,64.71,44.06l2.81,14.79A55.35,55.35,0,0,1,84.59,144.31Z"/><path class="cls-5" d="M80.74,98.36a6.86,6.86,0,1,0,4.88-12.58,3.87,3.87,0,0,1-3.16-3l-.89-4.69"/><path class="cls-2" d="M26.24,101.65s-2.85-15,2.6-17.53,12.4-12.73,6.83-26.48c8.42,7.29,45.29,10.29,57.06-3.8s22.53-12.05,22.53-12.05L105,26.7S19.83,42.49,19.44,46.27s-8.39,26-8.39,26Z"/><path class="cls-5" d="M62.46,114.3c2.38,10.71,12.65,6,11.49-1.84"/><ellipse class="cls-4" cx="12.86" cy="103.95" rx="11.79" ry="13.29" transform="translate(-19.16 4.22) rotate(-10.75)"/><path class="cls-6" d="M11.59,91a27.81,27.81,0,0,1,11,13.46c2.2.93,5.87-1.11,5.87-1.11S19.5,88.15,24,83.57s13-9.9,8-22.13S30.17,50,34.51,51.5s37,13.26,56.25-2.91c3.69-3.74,34.83-17.76,47.85-9.76-.27-45.92-96.05-57.15-124.16-.43C-3.43,35-5.1,92.15,11.59,91Z"/><path class="cls-7" d="M24.92,42.5S51.25,58.91,72.65,47s48.7-24.8,60-17.69C123.26,18,107,8.43,89.11,11.38"/><path class="cls-7" d="M24.13,34.76c2.9,1,25.67,12.93,37.33,5.53S94.58,15.3,115,22"/><path class="cls-7" d="M17.53,47.51s13.53,6,8.33,14.19S11.09,75.33,16.65,84.41"/><path class="cls-7" d="M10.56,45.22c-1.16,3.38,7.07,5.2,6.62,11.14S2.27,71.59,10.59,82.18"/><path class="cls-8" d="M6.89,92.2s21-2,29.5,5.5,28,17.5,42.5-3.5c3.5-6,10.37-5.55,16,0,12.34,12.17,37,1.5,35-19.5-1.5-13-2.5-16-2.5-16s-18.5-15-37,.5-25.5-3-43,4S6.89,88.7,6.89,88.7Z"/><g class="cls-9"><path class="cls-10" d="M80.74,98.36a6.86,6.86,0,1,0,4.88-12.58,3.87,3.87,0,0,1-3.16-3l-.89-4.69"/></g><circle class="cls-11" cx="56.09" cy="84.86" r="17.94" transform="translate(-7.28 5.29) rotate(-5.07)"/><circle class="cls-11" cx="106.56" cy="75.28" r="17.94" transform="translate(-7.94 137.82) rotate(-63.88)"/><g class="cls-12"><circle class="cls-13" cx="59.03" cy="75.51" r="14.53" transform="translate(-23.52 26.81) rotate(-21.44)"/></g><g class="cls-14"><circle class="cls-13" cx="109.5" cy="65.93" r="14.53" transform="translate(-14.55 96.74) rotate(-45)"/></g><path class="cls-15" d="M51.55,57.61c.34.7-2.27,2.68-5.83,4.41S39,64.59,38.65,63.89s2.26-2.68,5.83-4.42S51.2,56.9,51.55,57.61Z"/><path class="cls-15" d="M112.33,47.7c.11.77-3,1.85-6.91,2.4s-7.19.38-7.3-.4,3-1.85,6.91-2.4S112.22,46.92,112.33,47.7Z"/></g></g></svg>